<svg width="26" height="26" viewBox="0 0 26 26" fill="none" xmlns="http://www.w3.org/2000/svg">
<path d="M0 10C0 4.47715 4.47715 0 10 0H16C21.5228 0 26 4.47715 26 10V16C26 21.5228 21.5228 26 16 26H10C4.47715 26 0 21.5228 0 16V10Z" fill="#8F00FF"/>
<path fill-rule="evenodd" clip-rule="evenodd" d="M12.4634 16.0439C11.8172 15.9469 11.2122 15.6809 10.7282 15.2608C10.7069 15.242 10.6857 15.2221 10.6655 15.2031L10.6617 15.1996C10.6165 15.1584 10.574 15.1158 10.5314 15.072C10.4889 15.0281 10.449 14.9829 10.4091 14.9377L10.4091 14.9377L10.4091 14.9377L10.3888 14.9139L10.3888 14.9139C10.3567 14.8765 10.3244 14.8389 10.2948 14.7994C9.84401 14.221 9.59803 13.515 9.59803 12.7677C9.59803 11.9992 9.85731 11.2719 10.3333 10.6842C10.338 10.6782 10.3426 10.6726 10.3473 10.6669L10.3473 10.6669C10.3519 10.6613 10.3566 10.6556 10.3612 10.6496C10.4264 10.5712 10.4942 10.4954 10.5673 10.4236C10.7162 10.2747 10.8771 10.1444 11.0473 10.0287L11.0473 10.0287C11.0965 9.99545 11.1457 9.96221 11.1962 9.93296C11.2062 9.92697 11.2165 9.92099 11.2268 9.91501L11.2268 9.915C11.2371 9.90902 11.2474 9.90304 11.2574 9.89706C11.627 9.68963 12.0366 9.55002 12.4647 9.48487C12.7506 9.44232 13.0019 9.29075 13.1734 9.05806C13.3449 8.82538 13.4167 8.53951 13.3728 8.25364C13.329 7.96777 13.1774 7.71514 12.946 7.54362C12.728 7.38273 12.4647 7.31226 12.1974 7.33886V7.33753L12.1735 7.34151C12.1682 7.34218 12.1629 7.34251 12.1576 7.34284L12.1575 7.34284C12.1522 7.34318 12.1469 7.34351 12.1416 7.34417C12.0459 7.3588 11.9515 7.37608 11.8571 7.3947C10.7947 7.59946 9.81609 8.11137 9.0356 8.89186C6.90288 11.0246 6.89889 14.4936 9.02496 16.6303L9.03693 16.6422L9.03826 16.6436L9.03959 16.6449C9.90251 17.5065 11.0034 18.0423 12.1961 18.1966V18.1899C12.4634 18.2165 12.728 18.1461 12.9447 17.9852C13.1774 17.8136 13.329 17.561 13.3715 17.2752C13.4141 16.9893 13.3436 16.7034 13.1721 16.4707C13.0005 16.238 12.7492 16.0865 12.4634 16.0439ZM15.9151 10.6802C16.7847 10.6802 17.492 9.99279 17.492 9.14848C17.492 8.27891 16.7847 7.57154 15.9151 7.57154C15.0708 7.57154 14.3834 8.27891 14.3834 9.14848C14.3834 9.99279 15.0708 10.6802 15.9151 10.6802ZM15.7821 13.9298C16.8764 13.9298 17.2793 14.5308 17.4242 15.0347C17.7287 16.0931 17.1144 17.9307 15.8646 18.7125L15.6252 18.8627V16.9866C14.8474 16.9068 14.2491 16.2527 14.2491 15.4615C14.2491 14.6172 14.9378 13.9298 15.7821 13.9298Z" fill="white"/>
</svg>
