<svg width="78" height="78" viewBox="0 0 78 78" fill="none" xmlns="http://www.w3.org/2000/svg">
<path d="M0 30C0 13.4315 13.4315 0 30 0H48C64.5685 0 78 13.4315 78 30V48C78 64.5685 64.5685 78 48 78H30C13.4315 78 0 64.5685 0 48V30Z" fill="#D5D6DD"/>
<path fill-rule="evenodd" clip-rule="evenodd" d="M37.3902 48.1306C35.4516 47.8395 33.6367 47.0417 32.1848 45.7812C32.1209 45.7249 32.0571 45.665 31.9966 45.6083L31.9965 45.6082L31.9853 45.5977C31.8497 45.4741 31.722 45.3464 31.5944 45.2148C31.4668 45.0832 31.3471 44.9476 31.2275 44.812L31.2274 44.8119L31.1664 44.7407L31.1664 44.7406C31.0702 44.6286 30.9732 44.5155 30.8844 44.3971C29.5322 42.6619 28.7942 40.5438 28.7942 38.3021C28.7942 35.9965 29.572 33.8146 31.0001 32.0515C31.014 32.0335 31.028 32.0166 31.042 31.9996C31.0559 31.9827 31.0699 31.9657 31.0838 31.9478C31.2793 31.7124 31.4827 31.4851 31.7021 31.2697C32.1489 30.8229 32.6315 30.432 33.1421 30.085C33.2897 29.9852 33.4373 29.8855 33.5888 29.7978C33.6188 29.7798 33.6497 29.7619 33.6806 29.7439C33.7115 29.726 33.7424 29.708 33.7723 29.6901C34.8812 29.0678 36.1098 28.649 37.3942 28.4535C38.2518 28.3259 39.0057 27.8711 39.5203 27.1731C40.0349 26.475 40.2503 25.6174 40.1186 24.7598C39.987 23.9022 39.5323 23.1443 38.8382 22.6298C38.184 22.1471 37.3942 21.9357 36.5925 22.0155V22.0115L36.5207 22.0234C36.5047 22.0254 36.4888 22.0264 36.4728 22.0274C36.4568 22.0284 36.4409 22.0294 36.4249 22.0314C36.1377 22.0753 35.8545 22.1272 35.5713 22.183C32.3842 22.7973 29.4484 24.333 27.1069 26.6745C20.7088 33.0726 20.6968 43.4796 27.075 49.8897L27.1109 49.9256L27.1149 49.9296L27.1189 49.9336C29.7077 52.5184 33.0105 54.1259 36.5885 54.5886V54.5687C37.3902 54.6485 38.184 54.4371 38.8342 53.9544C39.5323 53.4398 39.987 52.682 40.1146 51.8244C40.2423 50.9667 40.0309 50.1091 39.5163 49.4111C39.0017 48.713 38.2479 48.2583 37.3902 48.1306ZM47.7454 32.0399C50.3541 32.0399 52.4762 29.9776 52.4762 27.4447C52.4762 24.836 50.3541 22.7139 47.7454 22.7139C45.2125 22.7139 43.1502 24.836 43.1502 27.4447C43.1502 29.9776 45.2125 32.0399 47.7454 32.0399ZM47.3464 41.7891C50.6292 41.7891 51.8378 43.592 52.2726 45.1038C53.1861 48.279 51.3432 53.7916 47.5937 56.1371L46.8757 56.5878V50.9595C44.5422 50.7202 42.7472 48.7576 42.7472 46.3842C42.7472 43.8513 44.8134 41.7891 47.3464 41.7891Z" fill="white"/>
</svg>
