<svg width="100" height="100" viewBox="0 0 100 100" fill="none" xmlns="http://www.w3.org/2000/svg">
<path d="M0 38.4615C0 17.2198 17.2198 0 38.4615 0H61.5385C82.7802 0 100 17.2198 100 38.4615V61.5385C100 82.7802 82.7802 100 61.5385 100H38.4615C17.2198 100 0 82.7802 0 61.5385V38.4615Z" fill="#8F00FF"/>
<path fill-rule="evenodd" clip-rule="evenodd" d="M51.0963 64.0597C48.3769 63.6512 45.831 62.5321 43.7942 60.7639C43.7047 60.685 43.6153 60.6011 43.5305 60.5216L43.5303 60.5214L43.5144 60.5065C43.3242 60.3331 43.1451 60.154 42.9661 59.9694C42.7871 59.7848 42.6192 59.5946 42.4514 59.4044L42.4514 59.4044L42.4513 59.4042L42.3657 59.3043C42.2308 59.1471 42.0947 58.9885 41.97 58.8223C40.0732 56.3883 39.038 53.417 39.038 50.2724C39.038 47.0382 40.1291 43.9774 42.1323 41.5042C42.1519 41.479 42.1715 41.4552 42.1911 41.4315C42.2107 41.4077 42.2302 41.3839 42.2498 41.3587C42.524 41.0286 42.8094 40.7096 43.1171 40.4075C43.7438 39.7808 44.4209 39.2324 45.1371 38.7456L45.1371 38.7456C45.3442 38.6057 45.5512 38.4658 45.7638 38.3427C45.8058 38.3176 45.8491 38.2924 45.8925 38.2672C45.9359 38.242 45.9792 38.2168 46.0212 38.1917C47.5767 37.3188 49.3002 36.7312 51.1019 36.4571C52.305 36.278 53.3625 35.6401 54.0843 34.6609C54.8061 33.6817 55.1083 32.4786 54.9237 31.2756C54.739 30.0726 54.1011 29.0094 53.1275 28.2876C52.2098 27.6106 51.1019 27.314 49.9772 27.4259V27.4203L49.8765 27.4371C49.8541 27.4399 49.8317 27.4413 49.8094 27.4427C49.787 27.4441 49.7646 27.4455 49.7422 27.4483C49.3393 27.5098 48.9421 27.5826 48.5448 27.6609C44.074 28.5226 39.9557 30.6769 36.6711 33.9615C27.6959 42.9367 27.6791 57.5353 36.6263 66.5273L36.6767 66.5777L36.6823 66.5833L36.6879 66.5889C40.3194 70.2148 44.9525 72.4697 49.9716 73.1188V73.0908C51.0963 73.2028 52.2098 72.9062 53.1219 72.2291C54.1011 71.5073 54.739 70.4442 54.9181 69.2411C55.0971 68.0381 54.8006 66.8351 54.0787 65.8559C53.3569 64.8766 52.2994 64.2388 51.0963 64.0597ZM65.6223 41.4874C69.2817 41.4874 72.2585 38.5945 72.2585 35.0414C72.2585 31.3819 69.2817 28.4051 65.6223 28.4051C62.0691 28.4051 59.1762 31.3819 59.1762 35.0414C59.1762 38.5945 62.0691 41.4874 65.6223 41.4874ZM65.0627 55.1628C69.6678 55.1628 71.3633 57.692 71.9732 59.8127C73.2546 64.2667 70.6694 71.9997 65.4097 75.2899L64.4025 75.9222V68.0269C61.1291 67.6912 58.6111 64.9382 58.6111 61.6089C58.6111 58.0557 61.5096 55.1628 65.0627 55.1628Z" fill="white"/>
</svg>
