<svg width="20" height="20" viewBox="0 0 20 20" fill="none" xmlns="http://www.w3.org/2000/svg">
<path fill-rule="evenodd" clip-rule="evenodd" d="M12.0177 3.94114C12.2711 3.68686 12.682 3.68686 12.9354 3.94114C13.1888 4.19542 13.1888 4.60769 12.9354 4.86197L7.81455 10.0006L12.9354 15.1392C13.1888 15.3935 13.1888 15.8058 12.9354 16.06C12.682 16.3143 12.2711 16.3143 12.0177 16.06L6.44367 10.4666C6.44179 10.4648 6.43991 10.4629 6.43805 10.461C6.29551 10.318 6.23315 10.125 6.25097 9.93821C6.25322 9.91465 6.25674 9.8912 6.26153 9.86796C6.28632 9.74783 6.34515 9.63337 6.43806 9.54014C6.43966 9.53853 6.44128 9.53693 6.44289 9.53534L12.0177 3.94114Z" fill="#333236"/>
</svg>
