<svg width="24" height="24" viewBox="0 0 24 24" fill="none" xmlns="http://www.w3.org/2000/svg">
<path d="M0 12C0 5.37258 5.37258 0 12 0C18.6274 0 24 5.37258 24 12C24 18.6274 18.6274 24 12 24C5.37258 24 0 18.6274 0 12Z" fill="#333236"/>
<path fill-rule="evenodd" clip-rule="evenodd" d="M16.4277 8.20819C16.6034 8.03244 16.6034 7.74752 16.4277 7.57179C16.2519 7.39606 15.967 7.39608 15.7913 7.57182L11.9998 11.3637L8.20823 7.57182C8.0325 7.39608 7.74757 7.39606 7.57183 7.57179C7.39609 7.74752 7.39607 8.03244 7.5718 8.20819L11.3634 12.0001L7.57179 15.7921C7.39606 15.9679 7.39608 16.2528 7.57182 16.4285C7.74756 16.6042 8.03249 16.6042 8.20822 16.4285L11.9998 12.6366L15.7913 16.4285C15.967 16.6042 16.252 16.6042 16.4277 16.4285C16.6034 16.2528 16.6035 15.9679 16.4277 15.7921L12.6361 12.0001L16.4277 8.20819Z" fill="white" stroke="white" stroke-linecap="round"/>
</svg>
