<svg width="20" height="20" viewBox="0 0 20 20" fill="none" xmlns="http://www.w3.org/2000/svg">
<path fill-rule="evenodd" clip-rule="evenodd" d="M7.98227 3.94114C7.72887 3.68686 7.31802 3.68686 7.06462 3.94114C6.81122 4.19542 6.81122 4.60769 7.06462 4.86197L12.1855 10.0006L7.06462 15.1392C6.81122 15.3935 6.81122 15.8058 7.06462 16.06C7.31802 16.3143 7.72887 16.3143 7.98227 16.06L13.5563 10.4666C13.5582 10.4648 13.5601 10.4629 13.562 10.461C13.7045 10.318 13.7668 10.125 13.749 9.93821C13.7467 9.91404 13.7431 9.88998 13.7381 9.86614C13.7131 9.74668 13.6544 9.6329 13.5619 9.54014C13.5603 9.53853 13.5587 9.53693 13.5571 9.53534L7.98227 3.94114Z" fill="#333236"/>
</svg>
