<svg width="16" height="17" viewBox="0 0 16 17" fill="none" xmlns="http://www.w3.org/2000/svg">
<rect y="0.5" width="16" height="16" rx="2" fill="#9933FF"/>
<path fill-rule="evenodd" clip-rule="evenodd" d="M5.90071 12.2235L3.02493 9.3477C2.72501 9.04778 2.72501 8.56151 3.02493 8.26158C3.32485 7.96166 3.81112 7.96166 4.11105 8.26158L6.44377 10.5943L11.7774 5.26071C12.0773 4.96079 12.5636 4.96079 12.8635 5.26071C13.1634 5.56063 13.1634 6.0469 12.8635 6.34682L6.99264 12.2177C6.99073 12.2196 6.9888 12.2216 6.98686 12.2235C6.70287 12.5075 6.25181 12.5226 5.95007 12.2688C5.93811 12.2587 5.92638 12.2482 5.9149 12.2373C5.91013 12.2328 5.9054 12.2282 5.90071 12.2235Z" fill="white" fill-opacity="0.9"/>
</svg>
