<svg width="24" height="24" viewBox="0 0 24 24" fill="none" xmlns="http://www.w3.org/2000/svg">
<path fill-rule="evenodd" clip-rule="evenodd" d="M12 5.9999C11.0058 5.9999 10.2 5.19402 10.2 4.1999C10.2 3.20579 11.0058 2.3999 12 2.3999C12.9941 2.3999 13.8 3.20579 13.8 4.1999C13.8 5.19402 12.9941 5.9999 12 5.9999ZM12 13.7999C11.0058 13.7999 10.2 12.994 10.2 11.9999C10.2 11.0058 11.0058 10.1999 12 10.1999C12.9941 10.1999 13.8 11.0058 13.8 11.9999C13.8 12.994 12.9941 13.7999 12 13.7999ZM10.2 19.7999C10.2 20.794 11.0058 21.5999 12 21.5999C12.9941 21.5999 13.8 20.794 13.8 19.7999C13.8 18.8058 12.9941 17.9999 12 17.9999C11.0058 17.9999 10.2 18.8058 10.2 19.7999Z" fill="#333236" fill-opacity="0.8"/>
</svg>
