<svg width="20" height="20" viewBox="0 0 20 20" fill="none" xmlns="http://www.w3.org/2000/svg">
<circle cx="10" cy="10" r="10" fill="#E9CCFF"/>
<path fill-rule="evenodd" clip-rule="evenodd" d="M8.80002 5.16046C8.74525 5.16046 8.69288 5.18292 8.65513 5.2226C8.61738 5.26227 8.59755 5.31569 8.60027 5.37039L8.90219 11.443C8.90748 11.5494 8.99535 11.633 9.10194 11.633H10.7741C10.881 11.633 10.969 11.549 10.9739 11.4422L11.2526 5.36963C11.2551 5.31505 11.2352 5.26183 11.1974 5.22232C11.1597 5.18281 11.1075 5.16046 11.0528 5.16046H8.80002ZM8.98582 12.5181C8.87536 12.5181 8.78582 12.6076 8.78582 12.7181V14.5953C8.78582 14.7058 8.87536 14.7953 8.98582 14.7953H10.8902C11.0007 14.7953 11.0902 14.7058 11.0902 14.5953V12.7181C11.0902 12.6076 11.0007 12.5181 10.8902 12.5181H8.98582Z" fill="#8F00FF"/>
</svg>
