<svg width="20" height="20" viewBox="0 0 20 20" fill="none" xmlns="http://www.w3.org/2000/svg">
<path d="M13.9992 7.24514H14.4273C15.5319 7.24514 16.4273 6.34971 16.4273 5.24514V3.87402C16.4273 2.76945 15.5319 1.87402 14.4273 1.87402H5.57244C4.46787 1.87402 3.57244 2.76945 3.57244 3.87402V5.24514C3.57244 6.34971 4.46787 7.24514 5.57244 7.24514H6.0005M13.9992 7.24514H6.0005M13.9992 7.24514V10.4824M6.0005 7.24514V10.4824M6.0005 10.4824H3.46794C2.6974 10.4824 2.07275 11.107 2.07275 11.8776V11.8776C2.07275 12.6481 2.6974 13.2727 3.46794 13.2727H5.25066M6.0005 10.4824H13.9992M13.9992 10.4824H16.5318C17.3023 10.4824 17.927 11.107 17.927 11.8776V11.8776C17.927 12.6481 17.3023 13.2727 16.5318 13.2727H14.7491M14.7491 13.2727V17.8542M14.7491 13.2727H5.25066M5.25066 13.2727V17.8542" stroke="current" stroke-width="1.3" stroke-linecap="round"/>
</svg>
